<svg viewBox="0 0 330 200" xmlns="http://www.w3.org/2000/svg"><g><g><g><g><g><line x1="55.375" y1="177.55200004577637" x2="50.375" y2="177.55200004577637" style="visibility: inherit;" fill="rgb(0, 0, 0)" stroke="rgb(204, 204, 204)" stroke-width="1px"></line><line x1="55.375" y1="155.35800004005432" x2="50.375" y2="155.35800004005432" style="visibility: inherit;" fill="rgb(0, 0, 0)" stroke="rgb(204, 204, 204)" stroke-width="1px"></line><line x1="55.375" y1="133.16400003433228" x2="50.375" y2="133.16400003433228" style="visibility: inherit;" fill="rgb(0, 0, 0)" stroke="rgb(204, 204, 204)" stroke-width="1px"></line><line x1="55.375" y1="110.97000002861023" x2="50.375" y2="110.97000002861023" style="visibility: inherit;" fill="rgb(0, 0, 0)" stroke="rgb(204, 204, 204)" stroke-width="1px"></line><line x1="55.375" y1="88.77600002288817" x2="50.375" y2="88.77600002288817" style="visibility: inherit;" fill="rgb(0, 0, 0)" stroke="rgb(204, 204, 204)" stroke-width="1px"></line><line x1="55.375" y1="66.58200001716614" x2="50.375" y2="66.58200001716614" style="visibility: inherit;" fill="rgb(0, 0, 0)" stroke="rgb(204, 204, 204)" stroke-width="1px"></line><line x1="55.375" y1="44.38800001144409" x2="50.375" y2="44.38800001144409" style="visibility: inherit;" fill="rgb(0, 0, 0)" stroke="rgb(204, 204, 204)" stroke-width="1px"></line><line x1="55.375" y1="22.194000005722025" x2="50.375" y2="22.194000005722025" style="visibility: inherit;" fill="rgb(0, 0, 0)" stroke="rgb(204, 204, 204)" stroke-width="1px"></line><line x1="55.375" y1="0" x2="50.375" y2="0" style="visibility: inherit;" fill="rgb(0, 0, 0)" stroke="rgb(204, 204, 204)" stroke-width="1px"></line></g><g transform="translate(45.375, 0)"><text x="0" y="177.55200004577637" dx="0em" dy="0.3em" style="text-anchor: end; visibility: hidden; font-family: Roboto, sans-serif; font-size: 12px; font-weight: 200;" fill="rgb(33, 33, 33)" stroke="none" stroke-width="1px">0.2</text><text x="0" y="155.35800004005432" dx="0em" dy="0.3em" style="text-anchor: end; visibility: inherit; font-family: Roboto, sans-serif; font-size: 12px; font-weight: 200;" fill="rgb(33, 33, 33)" stroke="none" stroke-width="1px">0.25</text><text x="0" y="133.16400003433228" dx="0em" dy="0.3em" style="text-anchor: end; visibility: hidden; font-family: Roboto, sans-serif; font-size: 12px; font-weight: 200;" fill="rgb(33, 33, 33)" stroke="none" stroke-width="1px">0.3</text><text x="0" y="110.97000002861023" dx="0em" dy="0.3em" style="text-anchor: end; visibility: inherit; font-family: Roboto, sans-serif; font-size: 12px; font-weight: 200;" fill="rgb(33, 33, 33)" stroke="none" stroke-width="1px">0.35</text><text x="0" y="88.77600002288817" dx="0em" dy="0.3em" style="text-anchor: end; visibility: hidden; font-family: Roboto, sans-serif; font-size: 12px; font-weight: 200;" fill="rgb(33, 33, 33)" stroke="none" stroke-width="1px">0.4</text><text x="0" y="66.58200001716614" dx="0em" dy="0.3em" style="text-anchor: end; visibility: inherit; font-family: Roboto, sans-serif; font-size: 12px; font-weight: 200;" fill="rgb(33, 33, 33)" stroke="none" stroke-width="1px">0.45</text><text x="0" y="44.38800001144409" dx="0em" dy="0.3em" style="text-anchor: end; visibility: hidden; font-family: Roboto, sans-serif; font-size: 12px; font-weight: 200;" fill="rgb(33, 33, 33)" stroke="none" stroke-width="1px">0.5</text><text x="0" y="22.194000005722025" dx="0em" dy="0.3em" style="text-anchor: end; visibility: inherit; font-family: Roboto, sans-serif; font-size: 12px; font-weight: 200;" fill="rgb(33, 33, 33)" stroke="none" stroke-width="1px">0.55</text><text x="0" y="0" dx="0em" dy="0.3em" style="text-anchor: end; visibility: hidden; font-family: Roboto, sans-serif; font-size: 12px; font-weight: 200;" fill="rgb(33, 33, 33)" stroke="none" stroke-width="1px">0.6</text></g><line x1="55.375" y1="0" x2="55.375" y2="177.55200004577637" fill="rgb(0, 0, 0)" stroke="rgb(204, 204, 204)" stroke-width="1px"></line></g></g><g transform="translate(55, 0)" clip-path="url(#clip_0)"><clipPath id="clip_0"><rect width="274" height="177"></rect></clipPath><g><g><g><line x1="0" y1="0" x2="0" y2="177.55200004577637" fill="rgb(0, 0, 0)" stroke="rgb(66, 66, 66)" stroke-width="1px" opacity="0.25"></line><line x1="30.513888888888886" y1="0" x2="30.513888888888886" y2="177.55200004577637" fill="rgb(0, 0, 0)" stroke="rgb(66, 66, 66)" stroke-width="1px" opacity="0.25"></line><line x1="61.02777777777777" y1="0" x2="61.02777777777777" y2="177.55200004577637" fill="rgb(0, 0, 0)" stroke="rgb(66, 66, 66)" stroke-width="1px" opacity="0.25"></line><line x1="91.54166666666666" y1="0" x2="91.54166666666666" y2="177.55200004577637" fill="rgb(0, 0, 0)" stroke="rgb(66, 66, 66)" stroke-width="1px" opacity="0.25"></line><line x1="122.05555555555554" y1="0" x2="122.05555555555554" y2="177.55200004577637" fill="rgb(0, 0, 0)" stroke="rgb(66, 66, 66)" stroke-width="1px" opacity="0.25"></line><line x1="152.56944444444446" y1="0" x2="152.56944444444446" y2="177.55200004577637" fill="rgb(0, 0, 0)" stroke="rgb(66, 66, 66)" stroke-width="1px" opacity="0.25"></line><line x1="183.08333333333331" y1="0" x2="183.08333333333331" y2="177.55200004577637" fill="rgb(0, 0, 0)" stroke="rgb(66, 66, 66)" stroke-width="1px" opacity="0.25"></line><line x1="213.59722222222223" y1="0" x2="213.59722222222223" y2="177.55200004577637" fill="rgb(0, 0, 0)" stroke="rgb(66, 66, 66)" stroke-width="1px" opacity="0.25"></line><line x1="244.1111111111111" y1="0" x2="244.1111111111111" y2="177.55200004577637" fill="rgb(0, 0, 0)" stroke="rgb(66, 66, 66)" stroke-width="1px" opacity="0.25"></line><line x1="274.625" y1="0" x2="274.625" y2="177.55200004577637" fill="rgb(0, 0, 0)" stroke="rgb(66, 66, 66)" stroke-width="1px" opacity="0.25"></line></g><g><line x1="0" y1="177.55200004577637" x2="274.625" y2="177.55200004577637" fill="rgb(0, 0, 0)" stroke="rgb(66, 66, 66)" stroke-width="1px" opacity="0.25"></line><line x1="0" y1="155.35800004005432" x2="274.625" y2="155.35800004005432" fill="rgb(0, 0, 0)" stroke="rgb(66, 66, 66)" stroke-width="1px" opacity="0.25"></line><line x1="0" y1="133.16400003433228" x2="274.625" y2="133.16400003433228" fill="rgb(0, 0, 0)" stroke="rgb(66, 66, 66)" stroke-width="1px" opacity="0.25"></line><line x1="0" y1="110.97000002861023" x2="274.625" y2="110.97000002861023" fill="rgb(0, 0, 0)" stroke="rgb(66, 66, 66)" stroke-width="1px" opacity="0.25"></line><line x1="0" y1="88.77600002288817" x2="274.625" y2="88.77600002288817" fill="rgb(0, 0, 0)" stroke="rgb(66, 66, 66)" stroke-width="1px" opacity="0.25"></line><line x1="0" y1="66.58200001716614" x2="274.625" y2="66.58200001716614" fill="rgb(0, 0, 0)" stroke="rgb(66, 66, 66)" stroke-width="1px" opacity="0.25"></line><line x1="0" y1="44.38800001144409" x2="274.625" y2="44.38800001144409" fill="rgb(0, 0, 0)" stroke="rgb(66, 66, 66)" stroke-width="1px" opacity="0.25"></line><line x1="0" y1="22.194000005722025" x2="274.625" y2="22.194000005722025" fill="rgb(0, 0, 0)" stroke="rgb(66, 66, 66)" stroke-width="1px" opacity="0.25"></line><line x1="0" y1="0" x2="274.625" y2="0" fill="rgb(0, 0, 0)" stroke="rgb(66, 66, 66)" stroke-width="1px" opacity="0.25"></line></g></g></g><g><g><line x1="0" y1="266.32800006866455" x2="274.625" y2="266.32800006866455" fill="rgb(0, 0, 0)" stroke="rgb(153, 153, 153)" stroke-width="1.5px"></line></g></g><g><g><line x1="30.513888888888886" y1="0" x2="30.513888888888886" y2="177.55200004577637" fill="rgb(0, 0, 0)" stroke="rgb(153, 153, 153)" stroke-width="1.5px"></line></g></g><g><g><g><g><g><path stroke="rgb(255, 112, 67)" stroke-width="2px" d="M48.82222222222222,180.33449172599944L51.87361111111111,176.52982157069158L54.925000000000004,171.52619887473068L57.97638888888889,167.48469868018483L61.02777777777777,164.14886350313455L64.07916666666667,160.34014464848494L67.13055555555556,156.31793820933103L70.18194444444444,152.2732237171809L73.23333333333333,149.13788099806393L76.28472222222223,147.75490283706793L79.33611111111111,146.03745623387687L82.3875,142.911849516016L85.4388888888889,140.85912283128624L88.49027777777778,135.18860881439662L91.54166666666666,131.57336241304242L94.59305555555555,125.42704964454711L97.64444444444445,123.40831753502243L100.69583333333333,117.11907591436098L103.74722222222222,112.31574392870618L106.79861111111111,108.11987065182947L109.85000000000001,103.3651929464517L112.90138888888889,102.89158564204537L115.95277777777778,98.6302566437779L119.00416666666668,96.3220320210163L122.05555555555554,92.5579025150641L125.10694444444444,89.4471716192731L128.15833333333333,87.40318351763231L131.20972222222224,85.9282189956202L134.26111111111112,82.73506223726329L137.3125,76.84200484000954L140.36388888888888,74.69107303546971L143.4152777777778,72.619287808127L146.46666666666667,68.85497792325783L149.51805555555555,67.87476687385715L152.56944444444446,64.58784648952472L155.62083333333334,60.91119795484068L158.67222222222222,59.59296798901397L161.72361111111113,57.4526331328447L164.775,54.78352963289619L167.8263888888889,55.24166855791493L170.8777777777778,54.06062732427464L173.92916666666665,51.896077995507234L176.98055555555555,46.15854733878131L180.03194444444443,42.00581950532871L183.08333333333331,40.15337024250407L186.13472222222222,39.14842839671107L189.1861111111111,35.70463611431301L192.23749999999998,33.78040474935514L195.2888888888889,33.08749307054618L198.34027777777777,28.58804972355316L201.39166666666665,26.350021438446603L204.44305555555556,24.439039032399084L207.49444444444444,22.404690435175677L210.54583333333335,22.14286243267523L213.59722222222223,18.505751019033447L216.6486111111111,16.572055887221097L219.70000000000002,17.151840822742543L222.7513888888889,14.445818602420852L225.80277777777778,12.964249274704764L228.85416666666669,11.116526522241678L231.90555555555557,7.167065695844722L234.95694444444445,4.584323193291131L238.00833333333335,4.028964557249742L241.0597222222222,2.310846789284498" style="fill: none;" fill="none"></path></g><g><path stroke="rgb(187, 187, 187)" stroke-width="2px" d="M42.71944444444445,185.56050851821874L45.77083333333333,175.57014444986922L48.82222222222222,168.05617235260968L51.87361111111111,158.62832240840456L54.925000000000004,152.21306495110824L57.97638888888889,145.0829837184689L61.02777777777777,135.91434552157753L64.07916666666667,131.92919222274915L67.13055555555556,125.59684694566106L70.18194444444444,123.22426989055971L73.23333333333333,118.21367409380719L76.28472222222223,115.27986686563777L79.33611111111111,108.2992013848529L82.3875,102.93959220563009L85.4388888888889,99.97276724123815L88.49027777777778,96.13310634874223L91.54166666666666,93.86491144117002L94.59305555555555,89.41458149515167L97.64444444444445,85.64358716254932L100.69583333333333,79.04872103860022L103.74722222222222,78.35878984007694L106.79861111111111,75.6011393447737L109.85000000000001,70.71510585506266L112.90138888888889,67.49940606980967L115.95277777777778,65.42794340567967L119.00416666666668,63.510367708178116L122.05555555555554,62.537377590137694L125.10694444444444,59.89397712185198L128.15833333333333,56.42588557510399L131.20972222222224,52.605023397120505L134.26111111111112,49.85086842936866L137.3125,47.98531476156787L140.36388888888888,42.2141207697233L143.4152777777778,40.63345042354891L146.46666666666667,39.47199279533446L149.51805555555555,41.15430767507326L152.56944444444446,40.139606576291236L155.62083333333334,36.050771303726805L158.67222222222222,33.597470141447445L161.72361111111113,29.391189981036106L164.775,28.039258465002455L167.8263888888889,24.458294382618767L170.8777777777778,24.40482795921101L173.92916666666665,21.95804236070116L176.98055555555555,17.93322125270684L180.03194444444443,16.867725464638863" style="fill: none;" fill="none"></path></g><g><path stroke="rgb(238, 51, 119)" stroke-width="2px" d="M30.513888888888886,104.5781283021183L33.56527777777778,102.35873207171274L36.61666666666667,98.64463114052359L39.668055555555554,96.63887691696227L42.71944444444445,95.07675618970192L45.77083333333333,96.82840702932143L48.82222222222222,93.22241577416347L51.87361111111111,94.33894529127542L54.925000000000004,94.63801884576182L57.97638888888889,95.35141708631159L61.02777777777777,91.67811942881843L64.07916666666667,93.21941943615045L67.13055555555556,94.95985464644937L70.18194444444444,94.9720490414189L73.23333333333333,96.11623026062341L76.28472222222223,95.94990064796772L79.33611111111111,94.99774048240181L82.3875,93.1125282143308L85.4388888888889,94.43188945765827L88.49027777777778,95.86266555575573L91.54166666666666,96.25945517590134L94.59305555555555,93.51460764462547L97.64444444444445,96.05798468289214L100.69583333333333,96.48317296589073L103.74722222222222,96.20562340657777L106.79861111111111,98.2762540224669L109.85000000000001,96.71330579495854L112.90138888888889,94.71022306884336L115.95277777777778,96.1006359255709L119.00416666666668,96.33120674217083L122.05555555555554,95.01362441780896L125.10694444444444,93.7614373752163L128.15833333333333,93.9689064150585L131.20972222222224,98.0705512829225L134.26111111111112,99.85684496995196L137.3125,101.81638032526845L140.36388888888888,100.61290147604399L143.4152777777778,98.11529585749318L146.46666666666667,95.76448433792366L149.51805555555555,95.66788330685404L152.56944444444446,92.37847449847246L155.62083333333334,92.85504596184256L158.67222222222222,95.83977730240125L161.72361111111113,94.82529464043705L164.775,95.49497991794847L167.8263888888889,95.68373036914404L170.8777777777778,96.22310736183866L173.92916666666665,95.62346340270757L176.98055555555555,94.97958901827984L180.03194444444443,91.50386020485004" style="fill: none;" fill="none"></path></g><g><path stroke="rgb(51, 187, 238)" stroke-width="2px" d="M30.513888888888886,95.87807854310985L33.56527777777778,98.04199710217591L36.61666666666667,99.7461777214774L39.668055555555554,99.11089794850596L42.71944444444445,100.4040537262778L45.77083333333333,99.13828435324547L48.82222222222222,98.70997115442368L51.87361111111111,98.93031186440051L54.925000000000004,100.81784470075279L57.97638888888889,101.08068355400968L61.02777777777777,101.9858017627223L64.07916666666667,102.42000109982494L67.13055555555556,101.54209807238989L70.18194444444444,103.64591795874423L73.23333333333333,102.5623680386126L76.28472222222223,100.27862369188084L79.33611111111111,97.38158439042827L82.3875,97.45488793454722L85.4388888888889,97.356812635523L88.49027777777778,99.49969680882167L91.54166666666666,99.04533169210451L94.59305555555555,97.6363731745396L97.64444444444445,96.79100993286373L100.69583333333333,99.90587203997003L103.74722222222222,98.36577226491643L106.79861111111111,99.14621441467546L109.85000000000001,98.15855277379816L112.90138888888889,99.27045907936265L115.95277777777778,98.73024381717224L119.00416666666668,96.73712911444588" style="fill: none;" fill="none"></path></g><g><path stroke="rgb(204, 51, 17)" stroke-width="2px" d="M30.513888888888886,110.08224087501526L33.56527777777778,109.97126899651768L36.61666666666667,106.9026108407365L39.668055555555554,106.20155466330529L42.71944444444445,106.42153819037087L45.77083333333333,106.76553805179557L48.82222222222222,107.58243256547708L51.87361111111111,109.35789731996304L54.925000000000004,111.08545816243543L57.97638888888889,107.43062367369195L61.02777777777777,106.7131492710209L64.07916666666667,104.75405649606434L67.13055555555556,106.9236749210019L70.18194444444444,105.87810391711352L73.23333333333333,107.38291652643352L76.28472222222223,110.771780334109L79.33611111111111,112.62690158744864L82.3875,109.97528841058099L85.4388888888889,107.03501375699685L88.49027777777778,107.47268916461134L91.54166666666666,107.23812982881178L94.59305555555555,105.32185584333392L97.64444444444445,104.49170383702182L100.69583333333333,105.09444191404708L103.74722222222222,102.43769217052802L106.79861111111111,103.32937914533842L109.85000000000001,101.02355498279968L112.90138888888889,100.35027187126677L115.95277777777778,103.78142301390815L119.00416666666668,102.21805347302434L122.05555555555554,100.99594921451714L125.10694444444444,100.04962603094992L128.15833333333333,102.14510975697264L131.20972222222224,104.1481203904914L134.26111111111112,105.95360318035465L137.3125,107.17893154888863L140.36388888888888,104.29206992288628L143.4152777777778,102.55995295871897L146.46666666666667,100.88149534568853L149.51805555555555,100.2650365016353L152.56944444444446,99.96617790656423L155.62083333333334,103.373415658362L158.67222222222222,104.06836143131862L161.72361111111113,104.6983949017165L164.775,104.82783797602491L167.8263888888889,104.6214211030917L170.8777777777778,102.36694795233998L173.92916666666665,101.97304521779787L176.98055555555555,103.08610045377948L180.03194444444443,102.12045400117069" style="fill: none;" fill="none"></path></g><g><path stroke="rgb(0, 119, 187)" stroke-width="2px" d="M30.513888888888886,162.460081206007L33.56527777777778,142.26353830372452L36.61666666666667,134.1785818161661L39.668055555555554,131.550036159151L42.71944444444445,128.78465137735694L45.77083333333333,127.04628562988326L48.82222222222222,125.39907251133552L51.87361111111111,124.29629492353823L54.925000000000004,123.07265388225792L57.97638888888889,122.06059851060257L61.02777777777777,119.60402682880135L64.07916666666667,118.420507935393L67.13055555555556,115.61419029951111L70.18194444444444,115.0344358041236L73.23333333333333,120.4777894544653L76.28472222222223,120.08356142772135L79.33611111111111,117.78714080429204L82.3875,115.34412015673253L85.4388888888889,113.94949290053614L88.49027777777778,114.17811875644125" style="fill: none;" fill="none"></path></g><g><path stroke="rgb(255, 112, 67)" stroke-width="2px" d="M30.513888888888886,169.7397107632284L33.56527777777778,141.99720827570306L36.61666666666667,138.71340182506574L39.668055555555554,136.24471980456974L42.71944444444445,131.63564602204565L45.77083333333333,127.47188112278376L48.82222222222222,121.88662005013019L51.87361111111111,119.8290983787931L54.925000000000004,120.37465438429315L57.97638888888889,120.1268260820609L61.02777777777777,119.90781104133724L64.07916666666667,118.74486195191552L67.13055555555556,117.55092118304711L70.18194444444444,116.48017228808014L73.23333333333333,113.45794099199081L76.28472222222223,111.5034331209456L79.33611111111111,110.33108134647804L82.3875,110.48013201184474L85.4388888888889,111.03121857757034L88.49027777777778,110.79365752395478" style="fill: none;" fill="none"></path></g></g></g></g><g opacity="0.2"><g><g><g><path stroke="rgb(255, 112, 67)" stroke-width="2px" d="M42.71944444444445,180.57038090342616L45.77083333333333,176.5754660351143L48.82222222222222,174.1785131455307L51.87361111111111,170.98257595941925L54.925000000000004,164.1468273018608L57.97638888888889,161.48354190388298L61.02777777777777,159.17536651709747L64.07916666666667,154.64779324632454L67.13055555555556,150.2977617524929L70.18194444444444,146.21407599571037L73.23333333333333,144.4385523970585L76.28472222222223,145.6814109789219L79.33611111111111,143.46201309493446L82.3875,138.22423303043175L85.4388888888889,137.78034551644134L88.49027777777778,126.68335609650421L91.54166666666666,126.15069107971573L94.59305555555555,116.20778273884392L97.64444444444445,120.38025922707939L100.69583333333333,107.68528798543167L103.74722222222222,105.11078009025192L106.79861111111111,101.82607862999726L109.85000000000001,96.23318855430222L112.90138888888889,102.18117541253471L115.95277777777778,92.2382670716629L119.00416666666668,92.8596963625946L122.05555555555554,86.91170950436211L125.10694444444444,84.7810758945179L128.15833333333333,84.33720160918236L131.20972222222224,83.71577231825066L134.26111111111112,77.94532723695946L137.3125,68.00241889608765L140.36388888888888,71.46467536193848L143.4152777777778,69.51160998634529L146.46666666666667,63.20851311692047L149.51805555555555,66.40445030303192L152.56944444444446,59.6574659196167L155.62083333333334,55.39622515723801L158.67222222222222,57.61562304122543L161.72361111111113,54.24213084951782L164.775,50.77987438366699L167.8263888888889,55.92887694537163L170.8777777777778,52.28906547392464L173.92916666666665,48.64925400247765L176.98055555555555,37.55225135388565L180.03194444444443,35.776727755233765L183.08333333333331,37.37469634828949L186.13472222222222,37.64101562802887L189.1861111111111,30.53894769073105L192.23749999999998,30.894057701923373L195.2888888888889,32.04812555233383L198.34027777777777,21.838884703067777L201.39166666666665,22.992979010787963L204.44305555555556,21.5725654233284L207.49444444444444,19.353167539340973L210.54583333333335,21.75012042892456L213.59722222222223,13.050083898571017L216.6486111111111,13.671513189502718L219.70000000000002,18.021518226024625L222.7513888888889,10.386785271938322L225.80277777777778,10.741895283130646L228.85416666666669,8.344942393547058L231.90555555555557,1.2428744562492398L234.95694444444445,0.7102094394607548L238.00833333333335,3.1959266031875586L241.0597222222222,-0.2663298626632695" style="fill: none;" fill="none"></path></g><g><path stroke="rgb(187, 187, 187)" stroke-width="2px" d="M39.668055555555554,180.83671341182043L42.71944444444445,171.95911526154327L45.77083333333333,161.74987441227722L48.82222222222222,157.31107202997492L51.87361111111111,144.88242668239403L54.925000000000004,142.75180630120468L57.97638888888889,134.49564405618668L61.02777777777777,122.2445470998745L64.07916666666667,125.97314930277443L67.13055555555556,116.11900523604584L70.18194444444444,119.67005243334961L73.23333333333333,110.70367016594696L76.28472222222223,110.88122517154312L79.33611111111111,97.83115714735794L82.3875,94.90153924098587L85.4388888888889,95.52298176057243L88.49027777777778,90.37396597021294L91.54166666666666,90.46274347301102L94.59305555555555,82.73923301612663L97.64444444444445,79.98717011535072L100.69583333333333,69.15649997515297L103.74722222222222,77.32389794602776L106.79861111111111,71.46467536193848L109.85000000000001,63.38606812251663L112.90138888888889,62.67586132878685L115.95277777777778,62.32075131759453L119.00416666666668,60.63400522174072L122.05555555555554,61.077892735731126L125.10694444444444,55.92887694537163L128.15833333333333,51.22374866900253L131.20972222222224,46.87373040382576L134.26111111111112,45.719636096105575L137.3125,45.186984307971954L140.36388888888888,33.55732987124634L143.4152777777778,38.26244491896057L146.46666666666667,37.72980635948181L149.51805555555555,43.677779989059445L152.56944444444446,38.61755493015289L155.62083333333334,29.91751839979935L158.67222222222222,29.91751839979935L161.72361111111113,23.08176974224091L164.775,26.01136119130325L167.8263888888889,19.086848259601595L170.8777777777778,24.32462832410431L173.92916666666665,18.287863963073733L176.98055555555555,11.895989590850832L180.03194444444443,15.269481782558444" style="fill: none;" fill="none"></path></g><g><path stroke="rgb(238, 51, 119)" stroke-width="2px" d="M30.513888888888886,104.5781283021183L33.56527777777778,101.02709433346939L36.61666666666667,95.07909424658203L39.668055555555554,94.28010995005417L42.71944444444445,93.03725136819077L45.77083333333333,99.2515707348175L48.82222222222222,88.06579058342743L51.87361111111111,95.96685604590797L54.925000000000004,95.07909424658203L57.97638888888889,96.41073033124351L61.02777777777777,86.20148948197746L64.07916666666667,95.52298176057243L67.13055555555556,97.5648246389637L70.18194444444444,94.99031674378395L73.23333333333333,97.83115714735794L76.28472222222223,95.70052353751373L79.33611111111111,93.56990315632439L82.3875,90.28518846741486L85.4388888888889,96.41073033124351L88.49027777777778,98.00869892429924L91.54166666666666,96.85461784523392L94.59305555555555,89.39742666808891L97.64444444444445,99.8730000257492L100.69583333333333,97.12095035362816L103.74722222222222,95.78930104031181L106.79861111111111,101.38219111600685L109.85000000000001,94.36888745285225L112.90138888888889,91.70560205487442L115.95277777777778,98.1862539298954L119.00416666666668,96.67706283963776L122.05555555555554,93.03725136819077L125.10694444444444,91.88315706047058L128.15833333333333,94.28010995005417L131.20972222222224,104.22301829092598L134.26111111111112,102.53628542372704L137.3125,104.75568330771446L140.36388888888888,98.8076832208271L143.4152777777778,94.36888745285225L146.46666666666667,92.2382670716629L149.51805555555555,95.52298176057243L152.56944444444446,87.44436129249573L155.62083333333334,93.56990315632439L158.67222222222222,100.31687431108475L161.72361111111113,93.30357064793014L164.775,96.4995078340416L167.8263888888889,95.96685604590797L170.8777777777778,97.03217285083008L173.92916666666665,94.72399746404457L176.98055555555555,94.01377744165993L180.03194444444443,86.29026698477554" style="fill: none;" fill="none"></path></g><g><path stroke="rgb(51, 187, 238)" stroke-width="2px" d="M30.513888888888886,95.8780785431099L33.56527777777778,99.34034823761559L36.61666666666667,101.38219111600685L39.668055555555554,98.36380893549156L42.71944444444445,102.09239790973663L45.77083333333333,97.38726963336754L48.82222222222222,98.09747642709732L51.87361111111111,99.2515707348175L54.925000000000004,103.60158899999428L57.97638888888889,101.47096861880493L61.02777777777777,103.3352697202549L64.07916666666667,103.06893721186066L67.13055555555556,100.22811003694153L70.18194444444444,106.79752618610573L73.23333333333333,100.93831683067131L76.28472222222223,96.85461784523392L79.33611111111111,93.03725136819077L82.3875,97.5648246389637L85.4388888888889,97.20971462777138L88.49027777777778,102.71382720066833L91.54166666666666,98.36380893549156L94.59305555555555,95.52298176057243L97.64444444444445,95.52298176057243L100.69583333333333,104.5781283021183L103.74722222222222,96.05563354870606L106.79861111111111,100.31687431108475L109.85000000000001,96.67706283963776L112.90138888888889,100.93831683067131L115.95277777777778,97.91992142150116L119.00416666666668,93.74745816192055" style="fill: none;" fill="none"></path></g><g><path stroke="rgb(204, 51, 17)" stroke-width="2px" d="M30.513888888888886,110.08224087501526L33.56527777777778,109.9046858694191L36.61666666666667,103.9566990111866L39.668055555555554,105.37711259864616L42.71944444444445,106.70874868330765L45.77083333333333,107.24141370009613L48.82222222222222,108.75060479035378L51.87361111111111,111.94654197646523L54.925000000000004,113.63327484366417L57.97638888888889,102.00362040693855L61.02777777777777,105.6434451070404L64.07916666666667,101.82607862999726L67.13055555555556,110.17101837781334L70.18194444444444,104.31179579372406L73.23333333333333,109.63836658967972L76.28472222222223,115.85268595630646L79.33611111111111,115.40879844231605L82.3875,105.99854188957787L85.4388888888889,102.62504969787025L88.49027777777778,108.12916227076721L91.54166666666666,106.88630368890381L94.59305555555555,102.44750792092896L97.64444444444445,103.24649221745682L100.69583333333333,105.99854188957787L103.74722222222222,98.45258643828964L106.79861111111111,104.66690580491638L109.85000000000001,97.5648246389637L112.90138888888889,99.34034823761559L115.95277777777778,108.92814656729507L119.00416666666668,99.8730000257492L122.05555555555554,99.16279323201942L125.10694444444444,98.6301414438858L128.15833333333333,105.28833509584808L131.20972222222224,107.15263619729805L134.26111111111112,108.6618272875557L137.3125,109.01692407009315L140.36388888888888,99.96177752854729L143.4152777777778,99.96177752854729L146.46666666666667,98.36380893549156L149.51805555555555,99.34034823761559L152.56944444444446,99.51789001455688L155.62083333333334,108.48427228195953L158.67222222222222,105.11078009025192L161.72361111111113,105.6434451070404L164.775,105.02200258745384L167.8263888888889,104.31179579372406L170.8777777777778,98.98523822642326L173.92916666666665,101.38219111600685L176.98055555555555,104.75568330771446L180.03194444444443,100.67198432227707" style="fill: none;" fill="none"></path></g><g><path stroke="rgb(0, 119, 187)" stroke-width="2px" d="M30.513888888888886,162.460081206007L33.56527777777778,130.14561256235504L36.61666666666667,126.41702358810997L39.668055555555554,128.45886646650123L42.71944444444445,125.17416500624657L45.77083333333333,124.64149998945808L48.82222222222222,123.04353139640236L51.87361111111111,122.6884346138649L54.925000000000004,121.26802102640534L57.97638888888889,120.55781423267555L61.02777777777777,115.94145023044968L64.07916666666667,116.65167025283432L67.13055555555556,111.41387695967674L70.18194444444444,114.16593986045265L73.23333333333333,128.6364214720974L76.28472222222223,119.49249742775345L79.33611111111111,114.34348163739395L82.3875,111.68020946807098L85.4388888888889,111.85776447366715L88.49027777777778,114.52103664299011" style="fill: none;" fill="none"></path></g><g><path stroke="rgb(255, 112, 67)" stroke-width="2px" d="M30.513888888888886,169.7397107632284L33.56527777777778,125.35170678318786L36.61666666666667,135.56094763245392L39.668055555555554,133.3415497484665L42.71944444444445,125.61803929158211L45.77083333333333,121.71189531174088L48.82222222222222,113.89960735205841L51.87361111111111,116.82921202977562L54.925000000000004,121.17924352360725L57.97638888888889,119.75882993614769L61.02777777777777,119.58127493055153L64.07916666666667,117.00676703537178L67.13055555555556,115.76390845350838L70.18194444444444,114.87614665418243L73.23333333333333,108.92814656729507L76.28472222222223,108.57304978475761L79.33611111111111,108.57304978475761L82.3875,110.70367016594696L85.4388888888889,111.85776447366715L88.49027777777778,110.43733765755272" style="fill: none;" fill="none"></path></g></g></g></g></g></g><g transform="translate(55, 177)" clip-path="url(#clip_1)"><clipPath id="clip_1"><rect width="274" height="22"></rect></clipPath><g><g><line x1="0" y1="0" x2="0" y2="5" style="visibility: inherit;" fill="rgb(0, 0, 0)" stroke="rgb(204, 204, 204)" stroke-width="1px"></line><line x1="30.513888888888886" y1="0" x2="30.513888888888886" y2="5" style="visibility: inherit;" fill="rgb(0, 0, 0)" stroke="rgb(204, 204, 204)" stroke-width="1px"></line><line x1="61.02777777777777" y1="0" x2="61.02777777777777" y2="5" style="visibility: inherit;" fill="rgb(0, 0, 0)" stroke="rgb(204, 204, 204)" stroke-width="1px"></line><line x1="91.54166666666666" y1="0" x2="91.54166666666666" y2="5" style="visibility: inherit;" fill="rgb(0, 0, 0)" stroke="rgb(204, 204, 204)" stroke-width="1px"></line><line x1="122.05555555555554" y1="0" x2="122.05555555555554" y2="5" style="visibility: inherit;" fill="rgb(0, 0, 0)" stroke="rgb(204, 204, 204)" stroke-width="1px"></line><line x1="152.56944444444446" y1="0" x2="152.56944444444446" y2="5" style="visibility: inherit;" fill="rgb(0, 0, 0)" stroke="rgb(204, 204, 204)" stroke-width="1px"></line><line x1="183.08333333333331" y1="0" x2="183.08333333333331" y2="5" style="visibility: inherit;" fill="rgb(0, 0, 0)" stroke="rgb(204, 204, 204)" stroke-width="1px"></line><line x1="213.59722222222223" y1="0" x2="213.59722222222223" y2="5" style="visibility: inherit;" fill="rgb(0, 0, 0)" stroke="rgb(204, 204, 204)" stroke-width="1px"></line><line x1="244.1111111111111" y1="0" x2="244.1111111111111" y2="5" style="visibility: inherit;" fill="rgb(0, 0, 0)" stroke="rgb(204, 204, 204)" stroke-width="1px"></line><line x1="274.625" y1="0" x2="274.625" y2="5" style="visibility: inherit;" fill="rgb(0, 0, 0)" stroke="rgb(204, 204, 204)" stroke-width="1px"></line></g><g transform="translate(0, 8)"><text x="0" y="0" dx="0em" dy="0.95em" style="text-anchor: middle; visibility: hidden; font-family: Roboto, sans-serif; font-size: 12px; font-weight: 200;" fill="rgb(33, 33, 33)" stroke="none" stroke-width="1px">-10</text><text x="30.513888888888886" y="0" dx="0em" dy="0.95em" style="text-anchor: middle; visibility: inherit; font-family: Roboto, sans-serif; font-size: 12px; font-weight: 200;" fill="rgb(33, 33, 33)" stroke="none" stroke-width="1px">0</text><text x="61.02777777777777" y="0" dx="0em" dy="0.95em" style="text-anchor: middle; visibility: inherit; font-family: Roboto, sans-serif; font-size: 12px; font-weight: 200;" fill="rgb(33, 33, 33)" stroke="none" stroke-width="1px">10</text><text x="91.54166666666666" y="0" dx="0em" dy="0.95em" style="text-anchor: middle; visibility: inherit; font-family: Roboto, sans-serif; font-size: 12px; font-weight: 200;" fill="rgb(33, 33, 33)" stroke="none" stroke-width="1px">20</text><text x="122.05555555555554" y="0" dx="0em" dy="0.95em" style="text-anchor: middle; visibility: inherit; font-family: Roboto, sans-serif; font-size: 12px; font-weight: 200;" fill="rgb(33, 33, 33)" stroke="none" stroke-width="1px">30</text><text x="152.56944444444446" y="0" dx="0em" dy="0.95em" style="text-anchor: middle; visibility: inherit; font-family: Roboto, sans-serif; font-size: 12px; font-weight: 200;" fill="rgb(33, 33, 33)" stroke="none" stroke-width="1px">40</text><text x="183.08333333333331" y="0" dx="0em" dy="0.95em" style="text-anchor: middle; visibility: inherit; font-family: Roboto, sans-serif; font-size: 12px; font-weight: 200;" fill="rgb(33, 33, 33)" stroke="none" stroke-width="1px">50</text><text x="213.59722222222223" y="0" dx="0em" dy="0.95em" style="text-anchor: middle; visibility: inherit; font-family: Roboto, sans-serif; font-size: 12px; font-weight: 200;" fill="rgb(33, 33, 33)" stroke="none" stroke-width="1px">60</text><text x="244.1111111111111" y="0" dx="0em" dy="0.95em" style="text-anchor: middle; visibility: inherit; font-family: Roboto, sans-serif; font-size: 12px; font-weight: 200;" fill="rgb(33, 33, 33)" stroke="none" stroke-width="1px">70</text><text x="274.625" y="0" dx="0em" dy="0.95em" style="text-anchor: middle; visibility: hidden; font-family: Roboto, sans-serif; font-size: 12px; font-weight: 200;" fill="rgb(33, 33, 33)" stroke="none" stroke-width="1px">80</text></g><line x1="0" y1="0" x2="274.625" y2="0" fill="rgb(0, 0, 0)" stroke="rgb(204, 204, 204)" stroke-width="1px"></line></g></g></g></g></svg>