<svg viewBox="0 0 330 200" xmlns="http://www.w3.org/2000/svg"><g><g><g><g><g><line x1="66.71875" y1="177.55200004577637" x2="61.71875" y2="177.55200004577637" style="visibility: inherit;" fill="rgb(0, 0, 0)" stroke="rgb(204, 204, 204)" stroke-width="1px"></line><line x1="66.71875" y1="157.8240000406901" x2="61.71875" y2="157.8240000406901" style="visibility: inherit;" fill="rgb(0, 0, 0)" stroke="rgb(204, 204, 204)" stroke-width="1px"></line><line x1="66.71875" y1="138.09600003560385" x2="61.71875" y2="138.09600003560385" style="visibility: inherit;" fill="rgb(0, 0, 0)" stroke="rgb(204, 204, 204)" stroke-width="1px"></line><line x1="66.71875" y1="118.36800003051755" x2="61.71875" y2="118.36800003051755" style="visibility: inherit;" fill="rgb(0, 0, 0)" stroke="rgb(204, 204, 204)" stroke-width="1px"></line><line x1="66.71875" y1="98.64000002543132" x2="61.71875" y2="98.64000002543132" style="visibility: inherit;" fill="rgb(0, 0, 0)" stroke="rgb(204, 204, 204)" stroke-width="1px"></line><line x1="66.71875" y1="78.91200002034503" x2="61.71875" y2="78.91200002034503" style="visibility: inherit;" fill="rgb(0, 0, 0)" stroke="rgb(204, 204, 204)" stroke-width="1px"></line><line x1="66.71875" y1="59.184000015258775" x2="61.71875" y2="59.184000015258775" style="visibility: inherit;" fill="rgb(0, 0, 0)" stroke="rgb(204, 204, 204)" stroke-width="1px"></line><line x1="66.71875" y1="39.4560000101725" x2="61.71875" y2="39.4560000101725" style="visibility: inherit;" fill="rgb(0, 0, 0)" stroke="rgb(204, 204, 204)" stroke-width="1px"></line><line x1="66.71875" y1="19.728000005086212" x2="61.71875" y2="19.728000005086212" style="visibility: inherit;" fill="rgb(0, 0, 0)" stroke="rgb(204, 204, 204)" stroke-width="1px"></line><line x1="66.71875" y1="0" x2="61.71875" y2="0" style="visibility: inherit;" fill="rgb(0, 0, 0)" stroke="rgb(204, 204, 204)" stroke-width="1px"></line></g><g transform="translate(56.71875, 0)"><text x="0" y="177.55200004577637" dx="0em" dy="0.3em" style="text-anchor: end; visibility: hidden; font-family: Roboto, sans-serif; font-size: 12px; font-weight: 200;" fill="rgb(33, 33, 33)" stroke="none" stroke-width="1px">0.018</text><text x="0" y="157.8240000406901" dx="0em" dy="0.3em" style="text-anchor: end; visibility: inherit; font-family: Roboto, sans-serif; font-size: 12px; font-weight: 200;" fill="rgb(33, 33, 33)" stroke="none" stroke-width="1px">0.02</text><text x="0" y="138.09600003560385" dx="0em" dy="0.3em" style="text-anchor: end; visibility: hidden; font-family: Roboto, sans-serif; font-size: 12px; font-weight: 200;" fill="rgb(33, 33, 33)" stroke="none" stroke-width="1px">0.022</text><text x="0" y="118.36800003051755" dx="0em" dy="0.3em" style="text-anchor: end; visibility: inherit; font-family: Roboto, sans-serif; font-size: 12px; font-weight: 200;" fill="rgb(33, 33, 33)" stroke="none" stroke-width="1px">0.024</text><text x="0" y="98.64000002543132" dx="0em" dy="0.3em" style="text-anchor: end; visibility: hidden; font-family: Roboto, sans-serif; font-size: 12px; font-weight: 200;" fill="rgb(33, 33, 33)" stroke="none" stroke-width="1px">0.026</text><text x="0" y="78.91200002034503" dx="0em" dy="0.3em" style="text-anchor: end; visibility: inherit; font-family: Roboto, sans-serif; font-size: 12px; font-weight: 200;" fill="rgb(33, 33, 33)" stroke="none" stroke-width="1px">0.028</text><text x="0" y="59.184000015258775" dx="0em" dy="0.3em" style="text-anchor: end; visibility: hidden; font-family: Roboto, sans-serif; font-size: 12px; font-weight: 200;" fill="rgb(33, 33, 33)" stroke="none" stroke-width="1px">0.03</text><text x="0" y="39.4560000101725" dx="0em" dy="0.3em" style="text-anchor: end; visibility: inherit; font-family: Roboto, sans-serif; font-size: 12px; font-weight: 200;" fill="rgb(33, 33, 33)" stroke="none" stroke-width="1px">0.032</text><text x="0" y="19.728000005086212" dx="0em" dy="0.3em" style="text-anchor: end; visibility: hidden; font-family: Roboto, sans-serif; font-size: 12px; font-weight: 200;" fill="rgb(33, 33, 33)" stroke="none" stroke-width="1px">0.034</text><text x="0" y="0" dx="0em" dy="0.3em" style="text-anchor: end; visibility: hidden; font-family: Roboto, sans-serif; font-size: 12px; font-weight: 200;" fill="rgb(33, 33, 33)" stroke="none" stroke-width="1px">0.036</text></g><line x1="66.71875" y1="0" x2="66.71875" y2="177.55200004577637" fill="rgb(0, 0, 0)" stroke="rgb(204, 204, 204)" stroke-width="1px"></line></g></g><g transform="translate(66, 0)" clip-path="url(#clip_0)"><clipPath id="clip_0"><rect width="263" height="177"></rect></clipPath><g><g><g><line x1="0" y1="0" x2="0" y2="177.55200004577637" fill="rgb(0, 0, 0)" stroke="rgb(66, 66, 66)" stroke-width="1px" opacity="0.25"></line><line x1="29.25347222222222" y1="0" x2="29.25347222222222" y2="177.55200004577637" fill="rgb(0, 0, 0)" stroke="rgb(66, 66, 66)" stroke-width="1px" opacity="0.25"></line><line x1="58.50694444444444" y1="0" x2="58.50694444444444" y2="177.55200004577637" fill="rgb(0, 0, 0)" stroke="rgb(66, 66, 66)" stroke-width="1px" opacity="0.25"></line><line x1="87.76041666666666" y1="0" x2="87.76041666666666" y2="177.55200004577637" fill="rgb(0, 0, 0)" stroke="rgb(66, 66, 66)" stroke-width="1px" opacity="0.25"></line><line x1="117.01388888888889" y1="0" x2="117.01388888888889" y2="177.55200004577637" fill="rgb(0, 0, 0)" stroke="rgb(66, 66, 66)" stroke-width="1px" opacity="0.25"></line><line x1="146.26736111111111" y1="0" x2="146.26736111111111" y2="177.55200004577637" fill="rgb(0, 0, 0)" stroke="rgb(66, 66, 66)" stroke-width="1px" opacity="0.25"></line><line x1="175.52083333333331" y1="0" x2="175.52083333333331" y2="177.55200004577637" fill="rgb(0, 0, 0)" stroke="rgb(66, 66, 66)" stroke-width="1px" opacity="0.25"></line><line x1="204.77430555555557" y1="0" x2="204.77430555555557" y2="177.55200004577637" fill="rgb(0, 0, 0)" stroke="rgb(66, 66, 66)" stroke-width="1px" opacity="0.25"></line><line x1="234.02777777777777" y1="0" x2="234.02777777777777" y2="177.55200004577637" fill="rgb(0, 0, 0)" stroke="rgb(66, 66, 66)" stroke-width="1px" opacity="0.25"></line><line x1="263.28125" y1="0" x2="263.28125" y2="177.55200004577637" fill="rgb(0, 0, 0)" stroke="rgb(66, 66, 66)" stroke-width="1px" opacity="0.25"></line></g><g><line x1="0" y1="177.55200004577637" x2="263.28125" y2="177.55200004577637" fill="rgb(0, 0, 0)" stroke="rgb(66, 66, 66)" stroke-width="1px" opacity="0.25"></line><line x1="0" y1="157.8240000406901" x2="263.28125" y2="157.8240000406901" fill="rgb(0, 0, 0)" stroke="rgb(66, 66, 66)" stroke-width="1px" opacity="0.25"></line><line x1="0" y1="138.09600003560385" x2="263.28125" y2="138.09600003560385" fill="rgb(0, 0, 0)" stroke="rgb(66, 66, 66)" stroke-width="1px" opacity="0.25"></line><line x1="0" y1="118.36800003051755" x2="263.28125" y2="118.36800003051755" fill="rgb(0, 0, 0)" stroke="rgb(66, 66, 66)" stroke-width="1px" opacity="0.25"></line><line x1="0" y1="98.64000002543132" x2="263.28125" y2="98.64000002543132" fill="rgb(0, 0, 0)" stroke="rgb(66, 66, 66)" stroke-width="1px" opacity="0.25"></line><line x1="0" y1="78.91200002034503" x2="263.28125" y2="78.91200002034503" fill="rgb(0, 0, 0)" stroke="rgb(66, 66, 66)" stroke-width="1px" opacity="0.25"></line><line x1="0" y1="59.184000015258775" x2="263.28125" y2="59.184000015258775" fill="rgb(0, 0, 0)" stroke="rgb(66, 66, 66)" stroke-width="1px" opacity="0.25"></line><line x1="0" y1="39.4560000101725" x2="263.28125" y2="39.4560000101725" fill="rgb(0, 0, 0)" stroke="rgb(66, 66, 66)" stroke-width="1px" opacity="0.25"></line><line x1="0" y1="19.728000005086212" x2="263.28125" y2="19.728000005086212" fill="rgb(0, 0, 0)" stroke="rgb(66, 66, 66)" stroke-width="1px" opacity="0.25"></line><line x1="0" y1="0" x2="263.28125" y2="0" fill="rgb(0, 0, 0)" stroke="rgb(66, 66, 66)" stroke-width="1px" opacity="0.25"></line></g></g></g><g><g><line x1="0" y1="355.10400009155273" x2="263.28125" y2="355.10400009155273" fill="rgb(0, 0, 0)" stroke="rgb(153, 153, 153)" stroke-width="1.5px"></line></g></g><g><g><line x1="29.25347222222222" y1="0" x2="29.25347222222222" y2="177.55200004577637" fill="rgb(0, 0, 0)" stroke="rgb(153, 153, 153)" stroke-width="1.5px"></line></g></g><g><g><g><g><g><path stroke="rgb(255, 112, 67)" stroke-width="2px" d="M40.954861111111114,-2.6492893562802333L43.88020833333333,0.20474176520541923L46.80555555555556,3.5700217340971667L49.73090277777778,6.35676330205693L52.65625,9.179924530271002L55.58159722222222,11.498953957934463L58.50694444444444,14.304492558286457L61.432291666666664,17.236228829782473L64.35763888888889,20.239626906798183L67.2829861111111,22.635645120512226L70.20833333333333,25.062405000184633L73.13368055555556,26.691633447117837L76.05902777777777,28.624308594169175L78.984375,31.266698925425683L81.90972222222223,32.254504203806306L84.83506944444444,37.11436917254139L87.76041666666666,42.095727217318704L90.68576388888889,49.94218630222027L93.61111111111111,57.031833774236866L96.53645833333333,65.21654393924548L99.46180555555556,71.55298670694268L102.38715277777779,75.58987034048997L105.3125,80.11325985057066L108.23784722222221,81.68628901385651L111.16319444444444,83.9717786120958L114.08854166666667,86.61882154153702L117.01388888888889,88.61532001422697L119.93923611111111,90.69938454051923L122.86458333333333,92.39116784377217L125.78993055555556,94.30134738184499L128.71527777777777,98.06445785880761L131.640625,100.78792131485984L134.5659722222222,102.68911531089836L137.49131944444446,103.62342793806955L140.41666666666666,106.98822577665268L143.34201388888889,108.33156116566957L146.26736111111111,111.97854096973387L149.19270833333334,113.62073081899595L152.11805555555554,114.83748004497492L155.04340277777777,116.9820990422929L157.96875,118.41734004356137L160.89409722222223,119.07854087518476L163.81944444444446,121.41533915042199L166.74479166666666,123.52884782490386L169.67013888888889,127.4483870226678L172.59548611111111,134.594042777808L175.52083333333331,138.8159470400211L178.44618055555557,143.1258449307459L181.37152777777777,147.60148231411597L184.296875,150.83536887034694L187.22222222222223,152.83274570356173L190.14756944444443,157.20672510230625L193.07291666666666,160.25987549348028L195.99826388888889,161.91910973443967L198.92361111111111,163.05653495169352L201.84895833333334,163.28407868900126L204.77430555555557,164.66437041103288L207.69965277777777,167.605683423112L210.625,167.55802792583026L213.55034722222223,169.9147080846497L216.47569444444443,171.83149325583847L219.40104166666669,173.4838269867597L222.32638888888889,175.96369342294852L225.25173611111111,178.2320598261723" style="fill: none;" fill="none"></path></g><g><path stroke="rgb(187, 187, 187)" stroke-width="2px" d="M35.104166666666664,-0.1270487932415621L38.029513888888886,7.5890565422827585L40.954861111111114,14.399012531668967L43.88020833333333,21.273838413286907L46.80555555555556,27.480507549184782L49.73090277777778,33.50672871989778L52.65625,39.65450455413228L55.58159722222222,45.980704647741426L58.50694444444444,54.098626983054515L61.432291666666664,62.97346065315332L64.35763888888889,70.71099872365203L67.2829861111111,76.08759598736026L70.20833333333333,82.17780311010362L73.13368055555556,84.99060211968536L76.05902777777777,90.29526182921518L78.984375,94.81421258822732L81.90972222222223,97.51702088815708L84.83506944444444,99.63990396342587L87.76041666666666,102.36364554920404L90.68576388888889,105.56861401607003L93.61111111111111,108.25436040926556L96.53645833333333,111.93430308994756L99.46180555555556,113.50303241975219L102.38715277777779,116.81211223215556L105.3125,119.76318315716519L108.23784722222221,122.7378819858179L111.16319444444444,124.84525893386248L114.08854166666667,127.75409496001483L117.01388888888889,130.03683238707373L119.93923611111111,131.64678788277342L122.86458333333333,134.29931178445744L125.78993055555556,135.8733274732169L128.71527777777777,139.688913555848L131.640625,142.24126552337893L134.5659722222222,145.85208895812502L137.49131944444446,147.10773866907448L140.41666666666666,147.7632878912111L143.34201388888889,146.6952699664418L146.26736111111111,148.4637867757108L149.19270833333334,152.01541896670668L152.11805555555554,154.77546491473234L155.04340277777777,157.95721939214076L157.96875,159.9206638974914L160.89409722222223,162.18757383331302L163.81944444444446,163.81885577468643L166.74479166666666,165.39938910003465L169.67013888888889,167.10076497191866L172.59548611111111,167.1196007307928" style="fill: none;" fill="none"></path></g><g><path stroke="rgb(238, 51, 119)" stroke-width="2px" d="M29.25347222222222,86.48311813700688L32.17881944444444,86.31894272155292L35.104166666666664,87.07110334864761L38.029513888888886,88.11300642320029L40.954861111111114,89.01337894949118L43.88020833333333,87.66252738002521L46.80555555555556,90.42969134538271L49.73090277777778,89.20471104452382L52.65625,87.6780700813199L55.58159722222222,89.80226631365059L58.50694444444444,91.7761811105402L61.432291666666664,89.71720720416741L64.35763888888889,87.53158971870373L67.2829861111111,89.4715820894372L70.20833333333333,89.95152999203607L73.13368055555556,90.18028635851717L76.05902777777777,90.28332640914427L78.984375,89.95044432065659L81.90972222222223,89.31436293409814L84.83506944444444,88.46360425879803L87.76041666666666,88.8992443172308L90.68576388888889,90.43976915597868L93.61111111111111,88.0704774728493L96.53645833333333,88.2753852605501L99.46180555555556,85.89210942685334L102.38715277777779,83.28478862251896L105.3125,86.17327166091574L108.23784722222221,87.69816983348831L111.16319444444444,84.82563996485082L114.08854166666667,85.1737672771333L117.01388888888889,86.85981420741753L119.93923611111111,90.67254396974562L122.86458333333333,90.0788922747531L125.78993055555556,81.04464464189347L128.71527777777777,76.47400792050361L131.640625,79.53635240327664L134.5659722222222,83.30973597791518L137.49131944444446,86.237484471051L140.41666666666666,89.41497193740618L143.34201388888889,90.64955163419333L146.26736111111111,92.47069104414184L149.19270833333334,91.77400068801964L152.11805555555554,89.68039360412486L155.04340277777777,89.77526452650446L157.96875,89.66738743729927L160.89409722222223,88.94627002785342L163.81944444444446,89.21804750155293L166.74479166666666,90.63833594713995L169.67013888888889,91.59372191942985L172.59548611111111,93.31968378922342" style="fill: none;" fill="none"></path></g><g><path stroke="rgb(51, 187, 238)" stroke-width="2px" d="M29.25347222222222,91.22029944411351L32.17881944444444,88.69203019910374L35.104166666666664,87.17574883293477L38.029513888888886,86.81066710230044L40.954861111111114,84.4412725683097L43.88020833333333,85.92586523460967L46.80555555555556,85.09211442978628L49.73090277777778,85.42430637752412L52.65625,82.63964356200357L55.58159722222222,83.3310155551549L58.50694444444444,82.4864801085294L61.432291666666664,81.65256207972008L64.35763888888889,82.79276016765324L67.2829861111111,81.49738901251109L70.20833333333333,82.1562196603554L73.13368055555556,84.38574772282831L76.05902777777777,85.65625328227591L78.984375,87.20661818011922L81.90972222222223,87.58562639440879L84.83506944444444,84.01959046233608L87.76041666666666,86.01147394091987L90.68576388888889,86.97397650205552L93.61111111111111,87.67975214976346L96.53645833333333,83.8414870725009L99.46180555555556,86.70743812140431L102.38715277777779,86.83923887669089L105.3125,88.16638525583429L108.23784722222221,87.7683517731056L111.16319444444444,88.23612600135407L114.08854166666667,88.83321992231801" style="fill: none;" fill="none"></path></g><g><path stroke="rgb(204, 51, 17)" stroke-width="2px" d="M29.25347222222222,72.45861269697063L32.17881944444444,74.90421433228238L35.104166666666664,77.55612748912883L38.029513888888886,78.63730540739645L40.954861111111114,78.39488639580725L43.88020833333333,78.94822216148206L46.80555555555556,79.58309710753386L49.73090277777778,76.7611022193007L52.65625,77.25959216638674L55.58159722222222,79.05261028365115L58.50694444444444,77.92274896661445L61.432291666666664,79.11210851582996L64.35763888888889,77.46258363447201L67.2829861111111,79.12425365298226L70.20833333333333,79.22830290373969L73.13368055555556,69.7553762761896L76.05902777777777,71.53472477886316L78.984375,75.02458322884576L81.90972222222223,76.80213142983928L84.83506944444444,77.34458484756372L87.76041666666666,79.4580978178171L90.68576388888889,80.07210587483584L93.61111111111111,81.1149517835646L96.53645833333333,80.47102789132052L99.46180555555556,82.7121878050827L102.38715277777779,83.99252215975676L105.3125,84.10272740836052L108.23784722222221,85.0927035621658L111.16319444444444,82.98194974586715L114.08854166666667,83.78283584688093L117.01388888888889,84.25820086883871L119.93923611111111,84.48797707485677L122.86458333333333,82.85671589318513L125.78993055555556,80.99732030519773L128.71527777777777,78.39008598157157L131.640625,79.16687928568433L134.5659722222222,81.59498526920643L137.49131944444446,83.69312994441601L140.41666666666666,84.54882204188182L143.34201388888889,86.48554502421767L146.26736111111111,83.56171032385001L149.19270833333334,82.38098193258853L152.11805555555554,79.71758488469088L155.04340277777777,79.40141066232421L157.96875,80.36269464258697L160.89409722222223,81.11646443278356L163.81944444444446,81.4597736355498L166.74479166666666,83.50547553855152L169.67013888888889,83.49345991050144L172.59548611111111,84.19370429734454" style="fill: none;" fill="none"></path></g><g><path stroke="rgb(0, 119, 187)" stroke-width="2px" d="M29.25347222222222,-54.167651758808034L32.17881944444444,15.114603226892804L35.104166666666664,39.59060270430745L38.029513888888886,46.11330193083116L40.954861111111114,50.47057904832354L43.88020833333333,54.99571019089878L46.80555555555556,59.58213294446582L49.73090277777778,62.03178252663657L52.65625,63.58770609664114L55.58159722222222,65.61525976618745L58.50694444444444,69.92163588806098L61.432291666666664,70.26110781199098L64.35763888888889,71.6592423752456L67.2829861111111,72.40807549958494L70.20833333333333,56.45891998309281L73.13368055555556,60.57588426204325L76.05902777777777,65.56687793969523L78.984375,66.90022315184859L81.90972222222223,70.8119406800253L84.83506944444444,71.86417104323144" style="fill: none;" fill="none"></path></g><g><path stroke="rgb(255, 112, 67)" stroke-width="2px" d="M29.25347222222222,-102.89650434142821L32.17881944444444,1.030713528377291L35.104166666666664,28.210104912477032L38.029513888888886,41.05639361398673L40.954861111111114,50.96894425460091L43.88020833333333,57.83893096729667L46.80555555555556,63.5485810264515L49.73090277777778,65.79883978095653L52.65625,64.45082518087294L55.58159722222222,63.968474752961484L58.50694444444444,65.59765380726574L61.432291666666664,68.60813673766198L64.35763888888889,69.44444968788609L67.2829861111111,66.99249140927012L70.20833333333333,70.55004298329267L73.13368055555556,72.2496351487432L76.05902777777777,73.68859109180444L78.984375,75.27579102689447L81.90972222222223,75.34279518093665L84.83506944444444,75.77732628205474" style="fill: none;" fill="none"></path></g></g></g></g><g opacity="0.2"><g><g><g><path stroke="rgb(255, 112, 67)" stroke-width="2px" d="M40.954861111111114,-1.6538605417701127L43.88020833333333,4.152894257424047L46.80555555555556,8.382425934091666L49.73090277777778,10.419859260861317L52.65625,13.343538971049599L55.58159722222222,14.942442389049114L58.50694444444444,18.487354430196678L61.432291666666664,21.617878857702472L64.35763888888889,24.734917406498813L67.2829861111111,26.224978391971316L70.20833333333333,28.69969225455164L73.13368055555556,29.134327059389356L76.05902777777777,31.522503471395375L78.984375,35.229613519691526L81.90972222222223,33.73606163918523L84.83506944444444,44.403722414736L87.76041666666666,49.567491094970904L90.68576388888889,61.71161673849421L93.61111111111111,67.66616500953968L96.53645833333333,77.49351223106368L99.46180555555556,81.05760582176529L102.38715277777779,81.6451785753462L105.3125,86.8983325415777L108.23784722222221,84.04583034381504L111.16319444444444,87.40001090419578L114.08854166666667,90.58938447271844L117.01388888888889,91.61006706120124L119.93923611111111,93.82548091529854L122.86458333333333,94.9288425966867L125.78993055555556,97.16661655213197L128.71527777777777,103.70912341252523L131.640625,104.87311642871067L134.5659722222222,105.54090627554154L137.49131944444446,105.02489687015319L140.41666666666666,112.03542251578617L143.34201388888889,110.34656424470562L146.26736111111111,117.44901066851762L149.19270833333334,116.08401559091332L152.11805555555554,116.66260388306517L155.04340277777777,120.19902753734111L157.96875,120.570201545091L160.89409722222223,120.0703421225168L163.81944444444446,124.92053656305926L166.74479166666666,126.69911083650804L169.67013888888889,133.32769581918166L172.59548611111111,145.31252641037392L175.52083333333331,145.14880343328952L178.44618055555557,149.59069176680168L181.37152777777777,154.31493838915156L184.296875,155.68619870468493L187.22222222222223,155.82881095338084L190.14756944444443,163.76769420041896L193.07291666666666,164.83960108023956L195.99826388888889,164.40796109587822L198.92361111111111,164.76267277757404L201.84895833333334,163.62539429496292L204.77430555555557,166.7348079940802L207.69965277777777,172.0176529412306L210.625,167.48654467990767L213.55034722222223,173.4497283228788L216.47569444444443,174.70667101262165L219.40104166666669,175.96232758314156L222.32638888888889,179.68349307723162" style="fill: none;" fill="none"></path></g><g><path stroke="rgb(187, 187, 187)" stroke-width="2px" d="M32.17881944444444,-3.206831130377748L35.104166666666664,3.040658353397364L38.029513888888886,16.663196416859396L40.954861111111114,23.290091071411414L43.88020833333333,30.78419754488208L46.80555555555556,36.356143720224956L49.73090277777778,42.29301703852044L52.65625,48.72127976565022L55.58159722222222,55.374374506087364L58.50694444444444,66.20188152792188L61.432291666666664,76.23741470538164L64.35763888888889,82.29204142510612L67.2829861111111,84.14195856916638L70.20833333333333,91.30595498436348L73.13368055555556,89.20781683026954L76.05902777777777,98.25000663930054L78.984375,101.59149136563735L81.90972222222223,101.57082159241101L84.83506944444444,102.82403453640727L87.76041666666666,106.44910855140952L90.68576388888889,110.37596125551643L93.61111111111111,112.28292697368138L96.53645833333333,117.45417351854128L99.46180555555556,115.85611526460256L102.38715277777779,121.7757178390467L105.3125,124.18978199369799L108.23784722222221,127.19992566193353L111.16319444444444,128.00632241473735L114.08854166666667,132.11734739157393L117.01388888888889,133.46093777068162L119.93923611111111,134.06172080599563L122.86458333333333,138.27809732032543L125.78993055555556,138.2343508936126L128.71527777777777,145.41229251581308L131.640625,146.0697934088602L134.5659722222222,151.26832405437887L137.49131944444446,148.9912132238424L140.41666666666666,148.74661172076478L143.34201388888889,145.0932430828571L146.26736111111111,151.11656198606812L149.19270833333334,157.3428672489277L152.11805555555554,158.91553383477853L155.04340277777777,162.72985110687534L157.96875,162.86583065500707L160.89409722222223,165.58793873669202L163.81944444444446,166.26577868659385L166.74479166666666,167.7701890879684L169.67013888888889,169.6528287796874L172.59548611111111,167.14785436910373" style="fill: none;" fill="none"></path></g><g><path stroke="rgb(238, 51, 119)" stroke-width="2px" d="M29.25347222222222,86.48311813700688L32.17881944444444,86.22043747228061L35.104166666666664,87.79317755065848L38.029513888888886,89.33828443887423L40.954861111111114,90.18890531981654L43.88020833333333,85.79381335288885L46.80555555555556,94.38678009046728L49.73090277777778,87.41867800606063L52.65625,85.42657119533489L55.58159722222222,92.95645015633596L58.50694444444444,94.71915004394691L61.432291666666664,86.6399511896825L64.35763888888889,84.2602999108116L67.2829861111111,92.37776999852534L70.20833333333333,90.6708876851914L73.13368055555556,90.5232595715259L76.05902777777777,90.43784288198876L78.984375,89.45120570665124L81.90972222222223,88.36033775485765L84.83506944444444,87.18754400856072L87.76041666666666,89.55268051334376L90.68576388888889,92.75050572247454L93.61111111111111,84.51658672568654L96.53645833333333,88.58274451477313L99.46180555555556,82.31721261561287L102.38715277777779,79.3738185350496L105.3125,90.50598882767456L108.23784722222221,89.9855147512693L111.16319444444444,80.51684780790059L114.08854166666667,85.69595805315238L117.01388888888889,89.38888404373232L119.93923611111111,96.3916378546322L122.86458333333333,89.18841480313442L125.78993055555556,67.49327383970865L128.71527777777777,69.6180530348499L131.640625,84.12986904847043L134.5659722222222,88.9698112814926L137.49131944444446,90.62910718357655L140.41666666666666,94.18120311924098L143.34201388888889,92.50142117524825L146.26736111111111,95.20240015541297L149.19270833333334,90.72896515467448L152.11805555555554,86.53998297979402L155.04340277777777,89.91757091003285L157.96875,89.50557180351946L160.89409722222223,87.864593913797L163.81944444444446,89.62571371207686L166.74479166666666,92.76876861544075L169.67013888888889,93.02680087783257L172.59548611111111,95.90862659387896" style="fill: none;" fill="none"></path></g><g><path stroke="rgb(51, 187, 238)" stroke-width="2px" d="M29.25347222222222,91.22029944411351L32.17881944444444,87.17506865209786L35.104166666666664,85.7201187214125L38.029513888888886,86.38133098707448L40.954861111111114,81.34779106473142L43.88020833333333,87.9795913454625L46.80555555555556,83.8998374388759L49.73090277777778,85.90864542636854L52.65625,78.53280680201607L55.58159722222222,84.35762238972711L58.50694444444444,81.22733681293415L61.432291666666664,80.40622318159319L64.35763888888889,84.49933435496693L67.2829861111111,79.5568700467421L70.20833333333333,83.14369120142682L73.13368055555556,87.72846738061122L76.05902777777777,87.5614739860741L78.984375,89.53177188940458L81.90972222222223,88.15408097775635L84.83506944444444,78.67086251403629L87.76041666666666,88.99918991917164L90.68576388888889,88.41769867220222L93.61111111111111,88.7384016870163L96.53645833333333,78.0841349245162L99.46180555555556,91.00634432480615L102.38715277777779,87.03693944755062L105.3125,90.1571014287456L108.23784722222221,87.17130216008773L111.16319444444444,88.93778691284056L114.08854166666667,89.72886047375924" style="fill: none;" fill="none"></path></g><g><path stroke="rgb(204, 51, 17)" stroke-width="2px" d="M29.25347222222222,72.45861269697063L32.17881944444444,76.37157531346944L35.104166666666664,80.10196411970139L38.029513888888886,79.90877063927915L40.954861111111114,78.07838413427633L43.88020833333333,79.71368472628596L46.80555555555556,80.49097843838709L49.73090277777778,72.6466065811057L52.65625,77.99476801165137L55.58159722222222,81.71503322228536L58.50694444444444,76.23820475004717L61.432291666666664,80.88967539750858L64.35763888888889,74.99368229737189L67.2829861111111,81.61350329619755L70.20833333333333,79.38425447388742L73.13368055555556,55.552667376654874L76.05902777777777,74.2029945722201L78.984375,80.25848482913716L81.90972222222223,79.46818293975227L84.83506944444444,78.15821539175943L87.76041666666666,82.62825136312291L90.68576388888889,80.99309775616734L93.61111111111111,82.6792000574844L96.53645833333333,79.50514968084686L99.46180555555556,86.07391174652051L102.38715277777779,85.91301823172664L105.3125,84.2680349992812L108.23784722222221,86.5776662730271L111.16319444444444,79.81582096572176L114.08854166666667,84.98416455576408L117.01388888888889,84.9712482441391L119.93923611111111,84.83264133816616L122.86458333333333,80.40982431541752L125.78993055555556,78.2082270564013L128.71527777777777,74.47923460818285L131.640625,80.33206922182295L134.5659722222222,85.2371442069228L137.49131944444446,86.84034693775338L140.41666666666666,85.83236018331449L143.34201388888889,89.39062949124921L146.26736111111111,79.17595827916114L149.19270833333334,80.60988934711678L152.11805555555554,75.72248931476693L155.04340277777777,78.92714932891123L157.96875,81.80462061273128L160.89409722222223,82.24711911796088L163.81944444444446,81.97473743966704L166.74479166666666,86.57402839293927L169.67013888888889,83.47543646842671L172.59548611111111,85.24407087759509" style="fill: none;" fill="none"></path></g><g><path stroke="rgb(0, 119, 187)" stroke-width="2px" d="M29.25347222222222,-54.167651758808034L32.17881944444444,56.68395621831333L35.104166666666664,63.08756220262554L38.029513888888886,53.783996221222985L40.954861111111114,56.159440052921596L43.88020833333333,61.25559560829164L46.80555555555556,66.14079086483069L49.73090277777778,65.60339513407747L52.65625,65.88239113980373L55.58159722222222,68.62594066624884L58.50694444444444,76.34214155639512L61.432291666666664,70.76846830666709L64.35763888888889,73.75187906819659L67.2829861111111,73.52985814404802L70.20833333333333,32.55393434195587L73.13368055555556,66.74842707828996L76.05902777777777,73.0512564349164L78.984375,68.89990243387376L81.90972222222223,76.67892106149637L84.83506944444444,73.44242041001763" style="fill: none;" fill="none"></path></g><g><path stroke="rgb(255, 112, 67)" stroke-width="2px" d="M29.25347222222222,-102.89650434142821L32.17881944444444,63.38704425026057L35.104166666666664,54.302320641212695L38.029513888888886,56.16362912696212L40.954861111111114,63.91077037098678L43.88020833333333,67.34259578617153L46.80555555555556,71.71347196544384L49.73090277777778,69.07973864750885L52.65625,62.46276548410547L55.58159722222222,63.25224058256129L58.50694444444444,68.02664585460714L61.432291666666664,73.10747821809206L64.35763888888889,70.69618840633605L67.2829861111111,63.319357632868716L70.20833333333333,75.88218857599661L73.13368055555556,74.79782471284493L76.05902777777777,75.84641608846621L78.984375,77.65618793963796L81.90972222222223,75.44329120459135L84.83506944444444,76.42908321586808" style="fill: none;" fill="none"></path></g></g></g></g></g><g><g opacity="0.666758"><span fill="rgb(0, 0, 0)" stroke="none" stroke-width="1px">Alt + Scroll to Zoom</span></g></g></g><g transform="translate(66, 177)" clip-path="url(#clip_1)"><clipPath id="clip_1"><rect width="263" height="22"></rect></clipPath><g><g><line x1="0" y1="0" x2="0" y2="5" style="visibility: inherit;" fill="rgb(0, 0, 0)" stroke="rgb(204, 204, 204)" stroke-width="1px"></line><line x1="29.25347222222222" y1="0" x2="29.25347222222222" y2="5" style="visibility: inherit;" fill="rgb(0, 0, 0)" stroke="rgb(204, 204, 204)" stroke-width="1px"></line><line x1="58.50694444444444" y1="0" x2="58.50694444444444" y2="5" style="visibility: inherit;" fill="rgb(0, 0, 0)" stroke="rgb(204, 204, 204)" stroke-width="1px"></line><line x1="87.76041666666666" y1="0" x2="87.76041666666666" y2="5" style="visibility: inherit;" fill="rgb(0, 0, 0)" stroke="rgb(204, 204, 204)" stroke-width="1px"></line><line x1="117.01388888888889" y1="0" x2="117.01388888888889" y2="5" style="visibility: inherit;" fill="rgb(0, 0, 0)" stroke="rgb(204, 204, 204)" stroke-width="1px"></line><line x1="146.26736111111111" y1="0" x2="146.26736111111111" y2="5" style="visibility: inherit;" fill="rgb(0, 0, 0)" stroke="rgb(204, 204, 204)" stroke-width="1px"></line><line x1="175.52083333333331" y1="0" x2="175.52083333333331" y2="5" style="visibility: inherit;" fill="rgb(0, 0, 0)" stroke="rgb(204, 204, 204)" stroke-width="1px"></line><line x1="204.77430555555557" y1="0" x2="204.77430555555557" y2="5" style="visibility: inherit;" fill="rgb(0, 0, 0)" stroke="rgb(204, 204, 204)" stroke-width="1px"></line><line x1="234.02777777777777" y1="0" x2="234.02777777777777" y2="5" style="visibility: inherit;" fill="rgb(0, 0, 0)" stroke="rgb(204, 204, 204)" stroke-width="1px"></line><line x1="263.28125" y1="0" x2="263.28125" y2="5" style="visibility: inherit;" fill="rgb(0, 0, 0)" stroke="rgb(204, 204, 204)" stroke-width="1px"></line></g><g transform="translate(0, 8)"><text x="0" y="0" dx="0em" dy="0.95em" style="text-anchor: middle; visibility: hidden; font-family: Roboto, sans-serif; font-size: 12px; font-weight: 200;" fill="rgb(33, 33, 33)" stroke="none" stroke-width="1px">-10</text><text x="29.25347222222222" y="0" dx="0em" dy="0.95em" style="text-anchor: middle; visibility: inherit; font-family: Roboto, sans-serif; font-size: 12px; font-weight: 200;" fill="rgb(33, 33, 33)" stroke="none" stroke-width="1px">0</text><text x="58.50694444444444" y="0" dx="0em" dy="0.95em" style="text-anchor: middle; visibility: inherit; font-family: Roboto, sans-serif; font-size: 12px; font-weight: 200;" fill="rgb(33, 33, 33)" stroke="none" stroke-width="1px">10</text><text x="87.76041666666666" y="0" dx="0em" dy="0.95em" style="text-anchor: middle; visibility: inherit; font-family: Roboto, sans-serif; font-size: 12px; font-weight: 200;" fill="rgb(33, 33, 33)" stroke="none" stroke-width="1px">20</text><text x="117.01388888888889" y="0" dx="0em" dy="0.95em" style="text-anchor: middle; visibility: inherit; font-family: Roboto, sans-serif; font-size: 12px; font-weight: 200;" fill="rgb(33, 33, 33)" stroke="none" stroke-width="1px">30</text><text x="146.26736111111111" y="0" dx="0em" dy="0.95em" style="text-anchor: middle; visibility: inherit; font-family: Roboto, sans-serif; font-size: 12px; font-weight: 200;" fill="rgb(33, 33, 33)" stroke="none" stroke-width="1px">40</text><text x="175.52083333333331" y="0" dx="0em" dy="0.95em" style="text-anchor: middle; visibility: inherit; font-family: Roboto, sans-serif; font-size: 12px; font-weight: 200;" fill="rgb(33, 33, 33)" stroke="none" stroke-width="1px">50</text><text x="204.77430555555557" y="0" dx="0em" dy="0.95em" style="text-anchor: middle; visibility: inherit; font-family: Roboto, sans-serif; font-size: 12px; font-weight: 200;" fill="rgb(33, 33, 33)" stroke="none" stroke-width="1px">60</text><text x="234.02777777777777" y="0" dx="0em" dy="0.95em" style="text-anchor: middle; visibility: inherit; font-family: Roboto, sans-serif; font-size: 12px; font-weight: 200;" fill="rgb(33, 33, 33)" stroke="none" stroke-width="1px">70</text><text x="263.28125" y="0" dx="0em" dy="0.95em" style="text-anchor: middle; visibility: hidden; font-family: Roboto, sans-serif; font-size: 12px; font-weight: 200;" fill="rgb(33, 33, 33)" stroke="none" stroke-width="1px">80</text></g><line x1="0" y1="0" x2="263.28125" y2="0" fill="rgb(0, 0, 0)" stroke="rgb(204, 204, 204)" stroke-width="1px"></line></g></g></g></g></svg>